# xmcd
#
# Track frame offsets:
#	150
#	19096
#	36253
#	51129
#	67835
#	88246
#	104085
#	124844
#	144236
#	160130
#	180977
#	193779
#	209747
#	222133
#	238697
#	255089
#
# Disc length: 3608 seconds
#
# Revision: 0
# Processed by: cddbd v1.5.2PL0 Copyright (c) Steve Scherf et al.
# Submitted via: EZCDAudioConverter 3.1.7.1
#
DISCID=e10e1610
DTITLE=Rip Masters - Back To Honky Tonk
DYEAR=2008
DGENRE=Country
TTITLE0=Good Company
TTITLE1=Back to the Honky Tonk
TTITLE2=Abandoned Mine
TTITLE3=14 KT Mind
TTITLE4=I Traveled The World
TTITLE5=Limousine Daddy
TTITLE6=Here Comes My Love
TTITLE7=Prairie Sky
TTITLE8=The Heartache's On The House
TTITLE9=The Road Runs Past My Door
TTITLE10=I Got Bills
TTITLE11=I Need You
TTITLE12=Cajun Spice
TTITLE13=The Mountain
TTITLE14=Don't Blame Me
TTITLE15=I'll Never Let You Down
EXTD=
EXTT0=
EXTT1=
EXTT2=
EXTT3=
EXTT4=
EXTT5=
EXTT6=
EXTT7=
EXTT8=
EXTT9=
EXTT10=
EXTT11=
EXTT12=
EXTT13=
EXTT14=
EXTT15=
PLAYORDER=
